
<svg xmlns="http://www.w3.org/2000/svg" version="1.1" xmlns:xlink="http://www.w3.org/1999/xlink" preserveAspectRatio="none" x="0px" y="0px" width="182px" height="44px" viewBox="0 0 182 44">
<defs>
<g id="Layer0_1_FILL">
<path fill="#665CFF" stroke="none" d="
M 171.95 -153.45
Q 171.1 -152.05 171.05 -150.7 171.05 -149.8 171.65 -148.35 172.25 -146.95 173.6 -145.45 175.75 -143.3 176.4 -142.2 177.1 -141.1 177.05 -140.3 177.05 -139.6 176.45 -139.1 175.85 -138.55 174.75 -138.55 173.9 -138.6 172.8 -139.3 171.7 -140.05 170.8 -140.9 169.9 -141.75 169.5 -142.1 169.4 -142.2 169.05 -142.15 168.75 -142.1 168.5 -141.95 167.85 -141.45 167.45 -140.7 167 -140 167 -139.5 167 -138.8 167.25 -138.2 167.5 -137.55 168 -137.05 168.85 -136.2 170.05 -135.8 171.3 -135.4 172.5 -135.4 172.85 -135.4 173.75 -135.6 174.65 -135.75 175.75 -136.15 176.9 -136.55 177.85 -137.2 179.55 -138.35 180.45 -139.35 181.3 -140.4 181.6 -141.35 181.95 -142.25 181.95 -143.1 181.95 -144 181.35 -145.25 180.8 -146.45 179.55 -147.85 177.5 -149.85 176.55 -151.1 175.65 -152.4 175.7 -153.45 175.7 -154.05 176.2 -154.6 176.65 -155.15 177.4 -155.2 177.95 -155.2 178.65 -154.75 179.35 -154.35 180 -153.75 180.7 -153.15 181.25 -152.7 181.85 -152.1 182.2 -152 182.55 -151.9 182.85 -151.95 183.05 -151.95 183.4 -152.45 183.75 -152.95 184.05 -153.55 184.35 -154.2 184.35 -154.6 184.35 -155.2 184.1 -155.7 183.85 -156.2 183.5 -156.7 183.1 -157.15 182.1 -157.65 181.1 -158.1 179.45 -158.15 179.15 -158.15 178.25 -157.9 177.3 -157.7 176.15 -157.15 174.95 -156.6 173.85 -155.7 172.8 -154.8 171.95 -153.45
M 101 -161.3
Q 100.45 -161.75 99.85 -162.1 99.15 -162.45 98.8 -162.45 98.4 -162.45 97.8 -162.05 97.25 -161.7 96.9 -161.3 96.6 -161 96.4 -160.6 96.2 -160.15 95.95 -159.35 95.7 -158.55 95.35 -157 95.3 -156.85 95.1 -156.7 94.95 -156.55 94.7 -156.5 94.15 -156.25 93.4 -155.95 92.6 -155.6 91.95 -155.3 91.25 -155.05 91 -154.8 90.9 -154.75 90.65 -154.35 90.45 -153.95 90.2 -153.5 90 -153.05 90 -152.85 90 -152.6 90.3 -152.45 90.6 -152.3 90.85 -152.35 91.5 -152.65 92.5 -152.95 93.5 -153.3 94.25 -153.5 94.4 -153.55 94.5 -153.3 94.6 -153.1 94.6 -152.9 94.15 -151.05 93.6 -148.5 93 -145.95 92.3 -143.15 91.65 -140.3 91 -137.65 90.35 -135 89.75 -132.95 89.2 -130.85 88.85 -129.75 88.6 -129 88.25 -128.55 87.9 -128.05 87.25 -127.75 86.55 -127.45 85.35 -127.15 84.8 -127.05 84.3 -126.5 83.8 -125.95 83.8 -125.45 83.8 -125.15 84.2 -124.95 84.6 -124.75 85.45 -124.75 86.05 -124.75 87.05 -124.85 88.05 -124.9 88.85 -124.9 89.85 -124.85 91.15 -124.75 92.45 -124.7 93.65 -124.65 94.9 -124.55 95.7 -124.5 96.55 -124.45 96.65 -124.45 97.65 -124.45 98.15 -124.9 98.6 -125.35 98.6 -125.8 98.55 -126.15 98.05 -126.5 97.6 -126.8 97.15 -126.9 95.35 -127.3 94.9 -128 94.45 -128.65 94.75 -129.85 95.1 -131.45 95.45 -132.85 95.8 -134.25 96.15 -135.8 96.15 -135.85 96.35 -136 96.6 -136.2 96.75 -136.15 97.45 -135.8 98.05 -135.6 98.65 -135.4 99.1 -135.4 100.5 -135.45 102.3 -136.4 104.05 -137.25 105.5 -138.35 106.35 -139 107.5 -140.3 108.65 -141.6 109.8 -143.35 110.9 -145.1 111.65 -147.1 112.4 -149.2 112.4 -151.35 112.45 -152.8 111.85 -154.3 111.25 -155.85 109.75 -156.85 108.3 -157.95 105.6 -158 104.7 -158 103.7 -157.85 102.75 -157.75 101.7 -157.65 101.55 -157.65 101.4 -157.75 101.25 -157.85 101.25 -158 101.4 -158.65 101.5 -159.4 101.55 -160.1 101.55 -160.5 101.55 -160.85 101 -161.3
M 100.3 -153.55
Q 100.4 -153.9 100.7 -154.3 101 -154.7 101.1 -154.75 101.5 -154.9 102.45 -154.95 103.4 -155.05 104.2 -155.05 105.1 -155.1 105.8 -154.3 106.55 -153.55 106.55 -151.8 106.55 -150.9 106.25 -149.55 105.9 -148.2 105.5 -146.8 105.05 -145.35 104.55 -144.2 104.15 -143.05 103.85 -142.5 103.45 -141.8 102.65 -140.7 101.85 -139.6 100.9 -138.75 100 -137.9 99.1 -137.85 98.7 -137.9 98.2 -138.4 97.65 -138.95 97.35 -139.7 97.25 -139.85 97.2 -140.2 97.15 -140.55 97.2 -140.65 97.4 -141.7 97.8 -143.3 98.2 -144.95 98.7 -146.8 99.15 -148.65 99.55 -150.45 100 -152.2 100.3 -153.55
M 135.9 -154.5
Q 135 -153.05 134.95 -151.95 134.95 -151.65 135.05 -151.3 135.2 -150.95 135.5 -150.9 135.75 -150.9 136.1 -151.15 136.45 -151.35 137 -151.8 138.4 -153.05 139.3 -153.05 139.75 -153.05 139.95 -152.7 140.2 -152.3 140 -151.6 139.65 -150.35 139 -148.3 138.35 -146.25 137.65 -144.05 136.95 -141.85 136.45 -140.25 135.95 -138.65 135.85 -138.4 135.7 -137.95 135.7 -137.4 135.75 -136.8 135.95 -136.5 136.1 -136.3 136.85 -135.85 137.65 -135.45 138.8 -135.4 139.2 -135.4 139.75 -135.85 140.3 -136.35 140.85 -137.55 141.7 -139.55 142.75 -141.95 143.85 -144.35 145.05 -146.7 146.25 -149.05 147.4 -150.9 147.7 -151.5 148.25 -151.95 148.8 -152.45 149.15 -152.5 149.6 -152.45 150.15 -151.9 150.7 -151.45 151 -151.1 151.2 -151.05 151.55 -151.05 151.95 -151.05 152.05 -151.05 152.65 -151.4 153.4 -152.15 154.1 -152.95 154.65 -153.9 154.9259765625 -154.3767578125 155.05 -154.85 155.106640625 -154.793359375 155.15 -154.75 155.35 -154.6 155.55 -154.55 156.25 -154.5 157.15 -154.45 157.95 -154.4 158.5 -154.4 158.65 -154.35 158.65 -154.2 158.7 -154 158.65 -153.85
L 154.55 -140.45
Q 154.3 -139.5 154.15 -138.8 154.05 -138.1 154.05 -137.95 154.05 -137.55 154.3 -136.95 154.55 -136.35 155.1 -135.85 155.6 -135.4 156.35 -135.35 157.55 -135.4 159.4 -136.35 161.2 -137.25 162.9 -138.55 164.6 -139.85 165.5 -140.95 165.9 -141.45 166.15 -142.05 166.45 -142.65 166.45 -143.2 166.45 -143.6 166.15 -143.9 165.85 -144.2 165.65 -144.15 164.3 -142.95 163 -142.05 161.65 -141.15 161 -141.1 160.8 -141.05 160.65 -141.45 160.5 -141.85 160.85 -143.15 161.75 -146.3 162.65 -149.15 163.6 -152 164.2 -154 164.3 -154.15 164.5 -154.3 164.65 -154.5 164.85 -154.5
L 169.65 -154.3
Q 169.85 -154.3 170.1 -154.75 170.35 -155.25 170.5 -155.8 170.7 -156.35 170.7 -156.55 170.7 -156.8 170.6 -157 170.45 -157.25 170.3 -157.3
L 165.7 -157.3
Q 165.5 -157.3 165.35 -157.45 165.25 -157.6 165.3 -157.85 165.6 -158.85 165.9 -159.85 166.2 -160.85 166.4 -161.6 166.6 -162.4 166.6 -162.6 166.55 -162.85 165.8 -163.1 165 -163.3 164.05 -163.3 163.8 -163.35 163.15 -163.1 162.5 -162.85 162.15 -162.3 161.85 -161.65 161.35 -160.7 160.9 -159.75 160.45 -158.95 160.05 -158.1 159.85 -157.8 159.8 -157.7 159.6 -157.5 159.4 -157.35 159.3 -157.3 159 -157.25 158.35 -157.25 157.6 -157.2 156.9 -157.2 156.2 -157.2 155.9 -157.2 155.75 -157.1 155.4 -156.5 155.2826171875 -156.3154296875 155.2 -156.15 155.03203125 -156.748046875 154.35 -157.35 153.45 -158.1 152.2 -158.15 151.5 -158.15 150.6 -157.8 149.75 -157.45 148.75 -156.45 148.05 -155.8 147.2 -154.65 146.4 -153.5 145.65 -152.3 144.9 -151.1 144.35 -150.2 143.85 -149.35 143.75 -149.15 143.55 -148.85 143.35 -148.95 143.2 -149.05 143.25 -149.3 143.55 -150.15 143.85 -151.35 144.2 -152.55 144.45 -153.6 144.75 -154.6 144.75 -154.95 144.75 -156.2 144.2 -157.15 143.7 -158.1 142.2 -158.15 140.05 -158.1 138.45 -157 136.8 -155.9 135.9 -154.5
M 130.1 -156.95
Q 128.5 -158.1 126.15 -158.15 125.3 -158.15 124.1 -157.8 122.9 -157.5 121.8 -157.05 120.65 -156.55 119.95 -156.05 118.3 -154.8 117 -152.9 115.65 -150.95 114.8 -148.55 114 -146.2 113.95 -143.6 113.95 -141.6 114.85 -139.75 115.75 -137.9 117.35 -136.65 119 -135.45 121.2 -135.4 122.7 -135.45 124.3 -135.95 125.9 -136.5 127.15 -137.25 129.05 -138.6 130.5 -140.65 131.9 -142.75 132.65 -145.15 133.45 -147.55 133.45 -150 133.45 -152.15 132.6 -154 131.75 -155.85 130.1 -156.95
M 124.8 -155.2
Q 125.65 -155.75 126.2 -155.7 127.25 -155.65 127.75 -154.75 128.25 -153.8 128.25 -152.75 128.2 -150.75 127.6 -148.25 127 -145.75 126.05 -143.5 125.15 -141.2 124.15 -139.95 123.45 -138.9 122.85 -138.45 122.35 -138 121.75 -138 120.85 -138 120.2 -138.75 119.5 -139.55 119.45 -140.9 119.45 -142.3 119.75 -144.25 120.1 -146.25 120.85 -148.45 121.6 -150.65 122.85 -152.8 124 -154.6 124.8 -155.2 Z"/>

<path fill="#000084" stroke="none" d="
M 15.2 -167.75
Q 13.3 -167.65 11.7 -167.55 10.05 -167.45 9.1 -167.45
L 4.9 -167.45
Q 4.25 -167.45 3.65 -167.2 3 -166.9 2.95 -166.4 3 -165.95 3.55 -165.55 4.1 -165.15 4.55 -165.1 5.95 -164.9 6.65 -164.6 7.35 -164.25 7.55 -163.7 7.8 -163.2 7.85 -162.35 7.9 -161.7 7.9 -160.2 7.95 -158.65 7.95 -156.6 8 -154.55 8 -152.3 8 -148.35 7.95 -146.15 7.9 -143.9 7.8 -142.9 7.75 -141.8 7.7 -141.4 7.6 -140.1 6.85 -139.45 6.1 -138.85 4.35 -138.5 3.35 -138.3 2.9 -137.85 2.45 -137.4 2.45 -137 2.45 -136.5 2.95 -136.25 3.5 -136 4.25 -136 4.75 -136 5.7 -136.05 6.65 -136.05 7.75 -136.1 8.8 -136.1 9.7 -136.1 11.3 -136 13.4 -135.9 15.55 -135.8 18.05 -135.75 18.85 -135.75 20.2 -135.85 21.55 -136 22.95 -136.25 24.35 -136.5 25.45 -136.9 27 -137.45 28.55 -138.55 30.05 -139.65 31.1 -141.4 32.1 -143.1 32.15 -145.6 32.15 -147.65 31.25 -149.2 30.3 -150.75 28.8 -151.8 27.35 -152.9 25.6 -153.45 25.4 -153.55 25.4 -153.85 25.35 -154.1 25.45 -154.2 25.85 -154.4 26.55 -154.75 27.15 -155.15 27.75 -155.5 28.25 -155.85 28.45 -156 29.1 -156.8 29.55 -157.85 29.95 -158.85 29.95 -160.25 29.95 -161.85 29.25 -163.3 28.55 -164.75 27.2 -165.8 26.15 -166.65 23.95 -167.25 21.75 -167.85 18.85 -167.9 17.1 -167.85 15.2 -167.75
M 16.1 -165.25
Q 16.65 -165.35 16.95 -165.35 19.8 -165.3 21.45 -163.7 23.15 -162.1 23.2 -159.5 23.15 -157.45 22.5 -156.45 21.95 -155.4 21.5 -155.1 21.2 -154.9 20.4 -154.65 19.55 -154.4 18.5 -154.2 17.45 -154 16.5 -154 15.75 -154 15.4 -154.25 15.1 -154.5 15 -154.85 14.9 -155.3 14.85 -156.9 14.85 -158.45 14.9 -160.5 14.95 -162.5 15 -164.3 15.05 -164.7 15.15 -164.85 15.2 -165 15.35 -165.1 15.6 -165.15 16.1 -165.25
M 15.25 -151
Q 15.45 -151.35 15.55 -151.45 15.85 -151.6 16.5 -151.65 17.15 -151.75 17.6 -151.75 19.25 -151.75 20.8 -151.05 22.4 -150.35 23.4 -148.9 24.45 -147.4 24.5 -145.05 24.5 -144.05 24.25 -143.05 24 -142.05 23.7 -141.3 23.55 -140.8 22.85 -140.1 22.2 -139.45 21.15 -138.85 20.2 -138.3 19 -138.25 18.3 -138.25 17.45 -138.7 16.65 -139.15 16 -139.85 15.4 -140.55 15.2 -141.35 15.1 -141.9 15 -143.15 14.9 -144.4 14.85 -145.85 14.8 -147.3 14.85 -148.5 14.85 -149.75 14.9 -150.25 15 -150.65 15.25 -151
M 53.15 -161.55
Q 53.15 -161.95 53.1 -162.8 53 -163.65 52.95 -164.45 52.85 -165.3 52.85 -165.65 52.85 -166.1 52.65 -166.55 52.4 -167 52.15 -167.1 50.65 -167.5 48.8 -167.95 46.95 -168.4 44.9 -168.45 42.8 -168.45 40.95 -167.95 39.15 -167.5 37.75 -166.65 36.55 -166 35.5 -164.9 34.45 -163.85 33.8 -162.45 33.15 -161 33.15 -159.3 33.15 -156.9 34.1 -155.05 35.1 -153.15 37.05 -151.6 38.95 -150.05 41.75 -148.5 44.45 -147 45.65 -145.85 46.9 -144.7 47.25 -143.75 47.6 -142.8 47.55 -141.85 47.5 -140.45 46.8 -139.55 46.1 -138.6 45.05 -138.1 44.05 -137.65 43 -137.65 40.65 -137.65 38.6 -139.2 36.5 -140.7 35 -143.65 34.55 -144.5 34.1 -144.95 33.7 -145.4 33.25 -145.4 32.7 -145.35 32.4 -144.75 32.05 -144.1 32.05 -143.3 32 -142.3 32.2 -140.75 32.4 -139.2 33.05 -137.85 33.25 -137.4 33.6 -137.15 33.95 -136.9 34.2 -136.75 35.15 -136.25 37.25 -135.75 39.35 -135.25 42.25 -135.2 43.4 -135.2 44.8 -135.45 46.2 -135.7 47.5 -136.2 48.8 -136.65 49.85 -137.25 50.75 -137.8 51.8 -138.8 52.85 -139.8 53.6 -141.3 54.35 -142.8 54.35 -144.8 54.35 -147.2 53.15 -149.05 52 -150.95 49.8 -152.5 47.65 -154.1 44.6 -155.65 41.95 -157 40.75 -158.45 39.5 -159.85 39.55 -161.8 39.55 -162.9 40.15 -163.9 40.7 -164.9 41.75 -165.55 42.75 -166.15 44 -166.15 46.35 -166.1 48.1 -164.55 49.85 -163 50.65 -160.55 50.8 -160.2 51.1 -159.75 51.35 -159.35 51.75 -159.3 52.3 -159.3 52.75 -159.85 53.15 -160.35 53.15 -161.55
M 88.3 -155.55
Q 87.9 -157.6 86.75 -159.65 85.55 -161.7 83.4 -163.5 80.5 -165.95 76.9 -166.9 73.35 -167.85 69.55 -167.85 67.7 -167.85 65.7 -167.75 63.7 -167.65 62.05 -167.55 60.35 -167.45 59.4 -167.5
L 55.6 -167.45
Q 54.5 -167.45 53.9 -167.2 53.3 -166.9 53.3 -166.35 53.3 -165.9 53.8 -165.55 54.3 -165.15 55.2 -164.95 56.5 -164.7 57.1 -164.4 57.7 -164.1 57.9 -163.7 58.05 -163.4 58.1 -163.1 58.25 -162.4 58.3 -161.4 58.35 -160.35 58.35 -158.45 58.35 -156.5 58.35 -153.05 58.35 -149.65 58.3 -147.45 58.3 -145.25 58.2 -143.85 58.15 -142.4 58 -141.4 57.85 -140.25 57.4 -139.75 57 -139.2 56.3 -139 55.7 -138.8 54.85 -138.6 53.9 -138.3 53.35 -137.7 52.85 -137.1 52.85 -136.65 52.85 -136.35 53.1 -136.1 53.35 -135.9 53.7 -135.95 55.25 -136 56.95 -136.1 58.7 -136.15 59.95 -136.15 60.6 -136.15 61.8 -136.05 62.95 -136 64.35 -135.9 65.75 -135.85 67.05 -135.8 68.3 -135.7 69.1 -135.7 72.05 -135.7 75 -136.25 77.9 -136.75 80.7 -138.2 81.8 -138.8 83.15 -139.9 84.5 -141 85.75 -142.7 87.05 -144.35 87.85 -146.65 88.7 -148.95 88.7 -151.95 88.75 -153.6 88.3 -155.55
M 73.3 -164.45
Q 75.4 -163.6 77.2 -161.85 79.15 -159.85 80.05 -157.2 80.9 -154.55 80.85 -151.6 80.85 -149.65 80.5 -147.75 80.15 -145.8 79.35 -144.15 78.6 -142.5 77.4 -141.35 76.2 -140.2 74.85 -139.55 73.5 -138.85 72.4 -138.5 71.3 -138.2 70.9 -138.2 70.35 -138.2 69.6 -138.45 68.9 -138.7 68.2 -139 67.55 -139.3 67.2 -139.5 66.8 -139.85 66.35 -140.6 65.95 -141.35 65.8 -142.45 65.7 -143.2 65.6 -144.05 65.55 -144.9 65.5 -146.6 65.45 -148.3 65.45 -151.6
L 65.45 -155.25
Q 65.45 -158.2 65.5 -160.3 65.6 -162.4 65.7 -163.6 65.7 -163.9 66 -164.3 66.3 -164.75 66.45 -164.85 66.75 -164.95 67.35 -165.05 67.9 -165.15 68.55 -165.25 69.1 -165.3 69.35 -165.3 71.2 -165.3 73.3 -164.45 Z"/>
</g>

<path id="Layer0_0_1_STROKES" stroke="#665CFF" stroke-width="2" stroke-linejoin="miter" stroke-linecap="round" stroke-miterlimit="3" fill="none" d="
M 99 37
L 181 37"/>

<path id="Layer0_0_2_STROKES" stroke="#000084" stroke-width="2" stroke-linejoin="miter" stroke-linecap="round" stroke-miterlimit="3" fill="none" d="
M 1 37
L 82 37"/>
</defs>

<g transform="matrix( 1, 0, 0, 1, 0,0) ">
<use xlink:href="#Layer0_0_1_STROKES"/>

<use xlink:href="#Layer0_0_2_STROKES"/>
</g>

<g transform="matrix( 1.00054931640625, 0, 0, 1, -1.45,168.45) ">
<use xlink:href="#Layer0_1_FILL"/>
</g>
</svg>

