
<svg xmlns="http://www.w3.org/2000/svg" version="1.1" xmlns:xlink="http://www.w3.org/1999/xlink" preserveAspectRatio="none" x="0px" y="0px" width="16px" height="16px" viewBox="0 0 16 16">
<defs>
<g id="Layer0_0_FILL">
<path fill="#000000" stroke="none" d="
M 15.7 11.4
Q 15.55 11.4 15.45 11.45 13.6 12.65 11.2 12.65 7.95 12.65 5.7 10.35 3.45 8.05 3.4 4.8 3.45 2.45 4.6 0.6 4.65 0.5 4.65 0.35 4.65 0.2 4.55 0.1 4.4 0 4.3 0 4.15 0 4.05 0.1 3.25 0.65 2.6 1.35 0.05 3.85 0 7.4 0.05 10.95 2.6 13.5 5.1 16 8.6 16 12.2 16 14.75 13.55 15.4 12.85 15.95 12 16 11.9 16 11.75 16 11.6 15.9 11.55 15.85 11.4 15.7 11.4 Z"/>
</g>
</defs>

<g transform="matrix( 1, 0, 0, 1, 0,0) ">
<use xlink:href="#Layer0_0_FILL"/>
</g>
</svg>

