
<svg xmlns="http://www.w3.org/2000/svg" version="1.1" xmlns:xlink="http://www.w3.org/1999/xlink" preserveAspectRatio="none" x="0px" y="0px" width="20px" height="20px" viewBox="0 0 20 20">
<defs>
<g id="Layer0_0_FILL">
<path fill="#000000" stroke="none" d="
M 20 11.9
L 18.75 12.3
Q 17.4 12.7 15.9 12.7 12.35 12.7 9.85 10.2 7.35 7.65 7.3 4.05 7.3 2.6 7.75 1.35
L 8.25 0 6.95 0.45
Q 4.7 1.2 3 2.95 0.05 5.85 0 10 0.05 14.15 3 17.1 5.9 20 10 20 14.2 20 17.1 17.15 18.85 15.35 19.55 13.15
L 20 11.9
M 6.1 2.3
Q 5.95 3.1 5.95 4.05 6 8.2 8.9 11.15 11.8 14.1 15.9 14.1 16.85 14.1 17.8 13.95 17.15 15.15 16.15 16.2 13.65 18.65 10 18.65 6.45 18.65 3.95 16.15 1.45 13.6 1.4 10 1.45 6.4 3.95 3.9 4.95 2.9 6.1 2.3 Z"/>
</g>
</defs>

<g transform="matrix( 1, 0, 0, 1, 0,0) ">
<use xlink:href="#Layer0_0_FILL"/>
</g>
</svg>
