
<svg xmlns="http://www.w3.org/2000/svg" version="1.1" xmlns:xlink="http://www.w3.org/1999/xlink" preserveAspectRatio="none" x="0px" y="0px" width="20px" height="20px" viewBox="0 0 20 20">
<defs>
<g id="Layer0_0_FILL">
<path fill="#000000" stroke="none" d="
M 20 11.9
L 18.75 12.3
Q 17.4 12.7 15.9 12.7 12.35 12.7 9.85 10.2 7.35 7.65 7.3 4.05 7.3 2.6 7.75 1.35
L 8.25 0 6.95 0.45
Q 4.7 1.2 3 2.95 0.05 5.85 0 10 0.05 14.15 3 17.1 5.9 20 10 20 14.2 20 17.1 17.15 18.85 15.35 19.55 13.15
L 20 11.9 Z"/>
</g>
</defs>

<g transform="matrix( 1, 0, 0, 1, 0,0) ">
<use xlink:href="#Layer0_0_FILL"/>
</g>
</svg>
